<svg xmlns="http://www.w3.org/2000/svg" xmlns:xlink="http://www.w3.org/1999/xlink" viewBox="0 0 200.89 69.13"><defs><style>.cls-1{fill:url(#Gradient_bez_nazwy_6);}</style><linearGradient id="Gradient_bez_nazwy_6" x1="35.87" y1="95.81" x2="146.2" y2="-14.53" gradientUnits="userSpaceOnUse"><stop offset="0" stop-color="#7f47b3"/><stop offset="0.06" stop-color="#7043a3"/><stop offset="0.65" stop-color="#534bb8"/><stop offset="1" stop-color="#4348b5"/></linearGradient></defs><g id="Warstwa_2" data-name="Warstwa 2"><g id="Warstwa_2-2" data-name="Warstwa 2"><path class="cls-1" d="M88.75,47.13V50h12.58v6.77H82V47.13a9.73,9.73,0,0,1,.2-1.93,9.84,9.84,0,0,1,1.73-3.86,9.69,9.69,0,0,1,2-1.94,9.5,9.5,0,0,1,3.86-1.73,9.65,9.65,0,0,1,1.93-.2,2.9,2.9,0,0,0,2.91-2.9V22a2.91,2.91,0,0,0-5.81,0v9.66H82V22a9.43,9.43,0,0,1,.2-1.93,9.64,9.64,0,0,1,1.73-3.86,9.74,9.74,0,0,1,2-2,9.52,9.52,0,0,1,3.86-1.74,9.95,9.95,0,0,1,3.87,0,9.52,9.52,0,0,1,3.86,1.74,9.29,9.29,0,0,1,1.93,1.93,9.73,9.73,0,0,1,2,5.81V34.57a9.76,9.76,0,0,1-1.93,5.79,9.6,9.6,0,0,1-7.75,3.88A2.91,2.91,0,0,0,88.75,47.13Zm-19.6-44A3.15,3.15,0,0,0,63.78.92L61.34,3.36a6.15,6.15,0,0,0-1.62-.22A6.29,6.29,0,1,0,66,9.43a6.68,6.68,0,0,0-.21-1.63l2.43-2.43A3.11,3.11,0,0,0,69.15,3.14ZM9.44,3.27A6.16,6.16,0,1,0,15.6,9.43,6.16,6.16,0,0,0,9.44,3.27ZM68.82,31.43A15.61,15.61,0,0,0,66,25.15,15.12,15.12,0,0,0,62.85,22a15.86,15.86,0,0,0-6.29-2.84,16.21,16.21,0,0,0-3.13-.31V31.43a3.14,3.14,0,0,1,3.13,3.14V53.43a3.13,3.13,0,0,1-3.13,3.13H50.28V15.72A15.66,15.66,0,0,0,50,12.57a15.71,15.71,0,0,0-6-9.42A15.65,15.65,0,0,0,37.71.31,15.73,15.73,0,0,0,25.15,3.15,15.32,15.32,0,0,0,22,6.28a15.65,15.65,0,0,0-2.83,6.29,16.42,16.42,0,0,0-.32,3.15V53.43a3.14,3.14,0,0,1-6.28,0V34.57a3.15,3.15,0,0,1,3.14-3.14V18.85a16.23,16.23,0,0,0-3.14.31A15.93,15.93,0,0,0,6.28,22a15.08,15.08,0,0,0-3.13,3.15A15.7,15.7,0,0,0,0,34.57V53.43a15.54,15.54,0,0,0,3.15,9.42A15,15,0,0,0,6.28,66a15.93,15.93,0,0,0,6.29,2.84,16.32,16.32,0,0,0,6.28,0A15.69,15.69,0,0,0,25.15,66a16.05,16.05,0,0,0,3.13-3.14,15.86,15.86,0,0,0,2.84-6.29,16.21,16.21,0,0,0,.31-3.13V15.72a3.14,3.14,0,1,1,6.28,0V69.13H53.43a16.2,16.2,0,0,0,3.13-.3A15.86,15.86,0,0,0,62.85,66,15.08,15.08,0,0,0,66,62.85a15.86,15.86,0,0,0,2.84-6.29,16.2,16.2,0,0,0,.3-3.13V34.57A16.23,16.23,0,0,0,68.82,31.43Zm56.86-4.51c0,3.39-3.16,5.44-7.79,5.44H107.57V12.23h10.21c4.36,0,7,1.83,7,5a4.53,4.53,0,0,1-4.18,4.66C123.55,22.2,125.68,24.15,125.68,26.92Zm-12.91-6.48h4.4c1.52,0,2.51-.79,2.51-2.19s-.94-2.06-2.53-2.06h-4.38Zm7.7,5.76c0-1.51-1-2.19-2.83-2.19h-4.87v4.37h4.87C119.5,28.38,120.47,27.7,120.47,26.2Zm17.15-9.37v4.6h-2.1c-2.91,0-3.72,1.28-3.72,4.13v6.8h-4.9V16.83h4.9v5.62c.48-3.43,1.86-5.62,4.78-5.62Zm6.12-5.31V15.3h-5V11.52Zm0,5.31V32.36h-4.9V16.83Zm16.68,6.34v9.19h-4.9V24.22c0-2.41-.82-3.59-2.54-3.59s-2.77,1.28-2.77,3.71v8h-4.9V16.83h4.9v4.76c.61-3.4,2.43-5.17,5.29-5.17C158.73,16.42,160.39,18.69,160.39,23.17Zm17.17-6.34V30.64c0,4.61-2.91,7.47-7.68,7.47-4.54,0-7.56-2.47-7.56-6.21h4.88a2.39,2.39,0,0,0,2.58,2.53c1.83,0,2.88-1.38,2.88-3.76v-4c-.64,3.08-2.37,4.75-5,4.75-3.58,0-6.09-3.1-6.09-7.6s2.5-7.42,6.09-7.42c2.62,0,4.35,1.56,5,4.57V16.83Zm-4.9,7c0-2.2-1.09-3.23-3.12-3.23s-3,1-3,3.23,1,3.41,3,3.41S172.66,26,172.66,23.84ZM127,47.35V58.12h-4.84V53.43c-1.12,3.17-3.57,5.11-6.73,5.11-4.61,0-8-4.18-8-10.48s4.13-10.49,9.91-10.49a9.24,9.24,0,0,1,9.51,7.82h-5.16a4.15,4.15,0,0,0-4.34-3.47c-3,0-4.68,2.1-4.68,6.14s1.63,6.23,4.67,6.23c2.61,0,4.55-1.42,4.74-3.77h-4.94V47.35Zm17,1.56v9.21H139V54.24a5.58,5.58,0,0,1-5.73,4.3c-3.07,0-5.11-1.81-5.11-4.54,0-3,2.45-4.72,6.64-4.72H139v-.37c0-1.92-1-3-2.85-3s-2.66,1-2.66,2.55h-4.88c0-3.84,2.93-6.24,7.67-6.24S143.91,44.65,143.91,48.91Zm-4.9,3h-3.53c-1.56,0-2.39.53-2.39,1.54s.84,1.62,2.29,1.62c2.06,0,3.63-1.18,3.63-2.7Zm12.52-5.5v5.94c0,1.64.55,2.35,1.89,2.35a10,10,0,0,0,2.23-.35V58a14.43,14.43,0,0,1-3.62.54c-3.57,0-5.4-2.08-5.4-6.18V46.42h-1.86V42.6h1.86V39h4.9V42.6h4.12v3.82Zm20.55,2.52v9.18h-4.9V50c0-2.42-.82-3.6-2.52-3.6s-2.78,1.28-2.78,3.71v8H157V37.28h4.9V47.35c.61-3.4,2.42-5.17,5.3-5.17C170.43,42.18,172.08,44.46,172.08,48.94Zm16.76,2.56H177.93a3.31,3.31,0,0,0,3.43,3.27,3,3,0,0,0,3-2h4.51a7.4,7.4,0,0,1-7.6,5.73c-4.75,0-8-3.3-8-8.19s3.16-8.17,7.86-8.17,7.75,3.25,7.75,8.16A9.11,9.11,0,0,1,188.84,51.5Zm-4.54-2.66c-.33-2-1.39-3-3.12-3a3.08,3.08,0,0,0-3.21,3Zm16.59-6.24v4.59h-2.1c-2.91,0-3.72,1.28-3.72,4.13v6.8h-4.89V42.6h4.89v5.61c.49-3.43,1.86-5.61,4.79-5.61Z"/></g></g></svg>